{"title":"Throat.Meat.2009.DVDRip.x264.Iou1","uid":9330894,"size":1254740746,"categoryP":"porn","categoryS":"movies","magnet":"?xt=urn:btih:62aaacd485e3833c43451bdec92433d9a8f92d1f&amp;dn=Throat.Meat.2009.DVDRip.x264.Iou1&amp;tr=udp%3A%2F%2Ftracker.openbittorrent.com%3A80&amp;tr=udp%3A%2F%2Fopen.demonii.com%3A1337&amp;tr=udp%3A%2F%2Ftracker.coppersurfer.tk%3A6969&amp;tr=udp%3A%2F%2Fexodus.desync.com%3A6969","seeders":0,"leechers":0,"uploader":"jaybee211","files":-1,"time":1386727222,"description":"Genre                                    : XXX\nFormat                                   : MPEG-4\nFormat profile                           : Base Media / Version 2\nCodec ID                                 : mp42\nFile size                                : 1.17 GiB\nDuration                                 : 1h 55mn\nOverall bit rate mode                    : Variable\nOverall bit rate                         : 1 455 Kbps\n\nVideo\nID                                       : 1\nFormat                                   : AVC\nFormat/Info                              : Advanced Video Codec\nFormat profile                           : &lt;a class=&quot;__cf_email__&quot; href=&quot;/cdn-cgi/l/email-protection&quot; data-cfemail=&quot;fab2939d92bab6c9d4ca&quot;&gt;[email&amp;#160;protected]&lt;/a&gt;&lt;script data-cfhash='f9e31' type=&quot;text/javascript&quot;&gt;\n/* &lt;![CDATA[ */!function(){try{var t=&quot;currentScript&quot;in document?document.currentScript:function(){for(var t=document.getElementsByTagName(&quot;script&quot;),e=t.length;e--;)if(t[e].getAttribute(&quot;data-cfhash&quot;))return t[e]}();if(t&amp;&amp;t.previousSibling){var e,r,n,i,c=t.previousSibling,a=c.getAttribute(&quot;data-cfemail&quot;);if(a){for(e=&quot;&quot;,r=parseInt(a.substr(0,2),16),n=2;a.length-n;n+=2)i=parseInt(a.substr(n,2),16)^r,e+=String.fromCharCode(i);e=document.createTextNode(e),c.parentNode.replaceChild(e,c)}t.parentNode.removeChild(t);}}catch(u){}}()/* ]]&gt; */&lt;/script&gt;\nFormat settings, CABAC                   : Yes\nFormat settings, ReFrames                : 4 frames\nCodec ID                                 : avc1\nCodec ID/Info                            : Advanced Video Coding\nDuration                                 : 1h 55mn\nBit rate mode                            : Variable\nBit rate                                 : 1 388 Kbps\nMaximum bit rate                         : 3 540 Kbps\nWidth                                    : 720 pixels\nHeight                                   : 408 pixels\nDisplay aspect ratio                     : 16:9\nFrame rate mode                          : Constant\nFrame rate                               : 29.970 fps\nStandard                                 : NTSC\nColor space                              : YUV\nChroma subsampling                       : 4:2:0\nBit depth                                : 8 bits\nScan type                                : Progressive\nBits/(Pixel*Frame)                       : 0.158\nStream size                              : 1.11 GiB (95%)\nLanguage                                 : English\n\nAudio\nID                                       : 2\nFormat                                   : AAC\nFormat/Info                              : Advanced Audio Codec\nFormat profile                           : LC\nCodec ID                                 : 40\nDuration                                 : 1h 55mn\nBit rate mode                            : Variable\nBit rate                                 : 61.9 Kbps\nMaximum bit rate                         : 75.3 Kbps\nChannel(s)                               : 2 channels\nChannel positions                        : Front: L R\nSampling rate                            : 48.0 KHz\nCompression mode                         : Lossy\nStream size                              : 50.9 MiB (4%)\nLanguage                                 : English\n\nScreens. &lt;a href=&quot; http://bayimg.com/gAelMAaFB&quot; rel=&quot;nofollow&quot; target=&quot;_NEW&quot;&gt; http://bayimg.com/gAelMAaFB&lt;/a&gt;\n\nCovers. &lt;a href=&quot; http://bayimg.com/GAeLOAAFB&quot; rel=&quot;nofollow&quot; target=&quot;_NEW&quot;&gt; http://bayimg.com/GAeLOAAFB&lt;/a&gt;\n\n        &lt;a href=&quot; http://bayimg.com/HAElbaafb&quot; rel=&quot;nofollow&quot; target=&quot;_NEW&quot;&gt; http://bayimg.com/HAElbaafb&lt;/a&gt;\n\nEnjoy.","torrent":{"xt":"urn:btih:62aaacd485e3833c43451bdec92433d9a8f92d1f","amp;dn":"Throat.Meat.2009.DVDRip.x264.Iou1","amp;tr":["udp%3A%2F%2Ftracker.openbittorrent.com%3A80","udp%3A%2F%2Fopen.demonii.com%3A1337","udp%3A%2F%2Ftracker.coppersurfer.tk%3A6969","udp%3A%2F%2Fexodus.desync.com%3A6969"],"infoHash":"62aaacd485e3833c43451bdec92433d9a8f92d1f","infoHashBuffer":{"type":"Buffer","data":[98,170,172,212,133,227,131,60,67,69,27,222,201,36,51,217,168,249,45,31]},"announce":[],"urlList":[]}}